<svg width="24" height="29" viewBox="0 0 24 29" fill="none" xmlns="http://www.w3.org/2000/svg">
<path id="Vector" d="M0.405396 25.0912L2.43517 21.222C4.78543 22.8342 8.41766 24.0165 11.9431 24.0165C16.5367 24.0165 18.3529 22.6192 18.3529 20.2547C18.3529 14.1285 1.1532 19.3949 1.1532 8.53965C1.1532 3.59567 5.53325 0.371338 12.4772 0.371338C16.0026 0.371338 20.0621 1.33864 22.4124 2.84333L20.2758 6.71253C17.8187 5.10036 15.148 4.56297 12.4772 4.56297C8.204 4.56297 6.0674 6.17514 6.0674 8.3247C6.0674 14.7734 23.267 9.50695 23.267 20.1473C23.267 25.0912 18.7802 28.2081 11.5157 28.2081C7.1357 28.3156 2.64883 26.9184 0.405396 25.0912Z" fill="white"/>
</svg>
