<svg width="25" height="29" viewBox="0 0 25 29" fill="none" xmlns="http://www.w3.org/2000/svg">
<path id="Vector" d="M24.5 11.4414V27.993H19.7995V24.3387C18.197 26.8107 15.0989 28.2079 10.8257 28.2079C4.62958 28.2079 0.783691 24.8761 0.783691 20.1471C0.783691 15.7405 3.56127 12.1937 11.6804 12.1937H19.479V11.2264C19.479 7.03477 17.0219 4.67026 12.2145 4.67026C9.00961 4.67026 5.69788 5.85252 3.56127 7.57216L1.5315 3.81044C4.30908 1.55341 8.36863 0.263672 12.7487 0.263672C20.3336 0.37115 24.5 4.0254 24.5 11.4414ZM19.5858 19.6097V15.7405H12.0009C7.08667 15.7405 5.69788 17.6751 5.69788 19.9321C5.69788 22.6191 7.94131 24.3387 11.6804 24.3387C15.4194 24.4462 18.4107 22.834 19.5858 19.6097Z" fill="white"/>
</svg>
